#!OML:ASF F:\VICON\USERDATA\INSTALL\SteveWalk\SteveWalk.ASF
:FULLY-SPECIFIED
:DEGREES
339
root 0.547692 16.2071 27.8187 16.222 2.63663 1.4839
lowerback -14.6254 -1.96555 -4.27407
upperback -4.90913 -1.98743 0.024712
thorax 3.14071 -0.971656 2.09903
lowerneck -3.15279 -0.281099 -1.65306
upperneck 9.70394 -0.546415 2.94032
head 3.72521 -0.209381 1.24031
rclavicle -5.46037e-015 1.96797e-014
rhumerus -71.0602 -40.2157 -33.4521
rradius 11.135
rwrist 34.9085
rhand -20.6726 -33.0359
rfingers 7.12502
rthumb 5.69048 -422.939
lclavicle -5.46037e-015 1.96797e-014
lhumerus -20.7318 -1.32152 83.2147
lradius 28.3069
lwrist -1.91058
lhand -19.0572 -16.7729
lfingers 7.12502
lthumb 7.24997 13.0829
rfemur -47.674 -5.2436 23.5993
rtibia 41.7724
rfoot -14.8909 -6.22027
rtoes -6.21756
lfemur -15.8854 8.05986 -24.4842
ltibia 29.9195
lfoot -25.5233 -9.68399
ltoes -6.55134
340
root 0.561201 16.2033 28.0227 16.3194 3.03087 1.67215
lowerback -14.47 -2.03226 -4.28185
upperback -5.08257 -2.08578 0.0299119
thorax 2.88161 -1.01288 2.09876
lowerneck -2.71409 -0.358463 -1.73813
upperneck 9.54033 -0.649474 2.97721
head 3.58655 -0.265709 1.25999
rclavicle 9.08042e-015 5.96354e-015
rhumerus -78.7625 -41.8133 -21.9762
rradius 10.4556
rwrist 42.499
rhand -20.5934 -33.4373
rfingers 7.12502
rthumb 5.76689 -423.339
lclavicle 9.08042e-015 5.96354e-015
lhumerus -19.7712 -2.57734 83.3224
lradius 29.3662
lwrist -0.924644
lhand -18.823 -16.9169
lfingers 7.12502
lthumb 7.47602 12.931
rfemur -47.9676 -5.67873 23.645
rtibia 38.6053
rfoot -14.4593 -6.14585
rtoes -6.22068
lfemur -14.6546 8.21985 -24.4926
ltibia 28.8148
lfoot -25.5296 -10.3423
ltoes -7.56467
341
root 0.575988 16.1844 28.2342 16.5535 3.28507 2.56829
lowerback -14.7392 -2.19707 -4.96034
upperback -5.08554 -2.18275 -0.193458
thorax 3.04161 -1.06146 2.22212
lowerneck -2.61737 -0.421954 -1.74909
upperneck 9.47326 -0.739182 3.03713
head 3.5477 -0.309087 1.27735
rclavicle 1.69852e-014 1.30204e-014
rhumerus -85.8799 -42.3098 -11.4425
rradius 10.0561
rwrist 49.2498
rhand -19.9895 -34.2324
rfingers 7.12502
rthumb 6.34993 -424.117
lclavicle 1.69852e-014 1.30204e-014
lhumerus -18.5315 -3.62427 83.2987
lradius 30.2297
lwrist -0.266254
lhand -18.831 -16.8587
lfingers 7.12502
lthumb 7.46827 12.9895
rfemur -48.4139 -6.3287 22.9378
rtibia 35.6132
rfoot -13.8552 -5.49724
rtoes -7.46104
lfemur -13.1391 8.35719 -25.306
ltibia 27.493
lfoot -26.2086 -9.44883
ltoes -15.0953
342
root 0.562096 16.168 28.4538 16.4971 3.57706 2.43514
lowerback -14.9832 -2.25408 -4.98969
upperback -4.81871 -2.23557 -0.08313
thorax 3.46368 -1.10006 2.33316
lowerneck -3.00354 -0.497523 -1.59012
upperneck 9.41734 -0.838306 2.95801
head 3.60324 -0.352959 1.21978
rclavicle 1.69577e-014 1.16289e-014
rhumerus -93.4936 -42.2447 -0.139017
rradius 9.89141
rwrist 56.602
rhand -19.5902 -34.6128
rfingers 7.12502
rthumb 6.73539 -424.486
lclavicle 1.69577e-014 1.16289e-014
lhumerus -16.9539 -4.3948 83.1615
lradius 31.0153
lwrist 0.071772
lhand -19.5058 -17.0554
lfingers 7.12502
lthumb 6.81693 12.8149
rfemur -48.4099 -5.99547 23.0398
rtibia 32.7018
rfoot -13.3713 -5.17494
rtoes -7.77533
lfemur -11.3743 8.51534 -24.8237
ltibia 26.0647
lfoot -26.7097 -8.22732
ltoes -22.0275
343
root 0.553033 16.1646 28.6697 16.5659 3.94224 2.58275
lowerback -15.0503 -2.45302 -5.24261
upperback -4.89231 -2.45998 -0.0365317
thorax 3.4501 -1.20872 2.48269
lowerneck -2.64551 -0.52141 -1.36061
upperneck 9.2414 -0.86917 2.79521
head 3.4695 -0.370002 1.12135
rclavicle 9.51837e-015 8.05078e-015
rhumerus -100.496 -40.7741 10.626
rradius 9.91023
rwrist 63.9318
rhand -19.618 -34.8758
rfingers 7.12502
rthumb 6.70859 -424.749
lclavicle 9.51837e-015 8.05078e-015
lhumerus -16.1255 -5.3127 82.9764
lradius 31.9512
lwrist 1.1728
lhand -20.591 -17.7689
lfingers 7.12502
lthumb 5.76923 12.1326
rfemur -48.5864 -5.84445 22.7838
rtibia 29.9163
rfoot -12.9895 -4.49236
rtoes -5.32092
lfemur -9.9565 8.34028 -24.6562
ltibia 24.713
lfoot -26.0951 -9.41318
ltoes -19.1004
344
root 0.550993 16.1524 28.8823 16.7441 4.38969 2.86278
lowerback -15.0786 -2.60861 -5.47051
upperback -5.00307 -2.63096 -0.0583165
thorax 3.36961 -1.28869 2.55775
lowerneck -2.42864 -0.574354 -1.33909
upperneck 9.11551 -0.938472 2.77429
head 3.38542 -0.406497 1.10658
rclavicle 2.07047e-014 1.18277e-014
rhumerus -106.885 -38.0507 20.9263
rradius 10.0872
rwrist 71.254
rhand -19.5635 -34.8311
rfingers 7.12502
rthumb 6.76125 -424.703
lclavicle 2.07047e-014 1.18277e-014
lhumerus -15.3078 -6.51255 82.8901
lradius 32.8944
lwrist 2.91217
lhand -20.9852 -18.2701
lfingers 7.12502
lthumb 5.38865 11.6414
rfemur -48.6327 -6.1516 22.6481
rtibia 26.9164
rfoot -12.2364 -3.51492
rtoes -4.84001
lfemur -8.86653 7.98626 -24.6583
ltibia 23.7387
lfoot -25.951 -9.88507
ltoes -18.422
345
root 0.553726 16.1275 29.1009 16.8233 4.89557 2.93502
lowerback -15.196 -2.71607 -5.41583
upperback -4.99351 -2.77255 -0.0339723
thorax 3.45371 -1.36036 2.52184
lowerneck -2.09478 -0.616467 -1.38059
upperneck 8.76767 -0.991133 2.81684
head 3.2039 -0.43641 1.12283
rclavicle -2.17087e-014 -1.99779e-014
rhumerus -107.663 -36.6506 22.5397
rradius 10.2739
rwrist 71.7783
rhand -19.0621 -35.3894
rfingers 7.12502
rthumb 7.24525 -425.245
lclavicle -2.17087e-014 -1.99779e-014
lhumerus -14.3131 -7.24532 82.7402
lradius 33.8635
lwrist 4.05816
lhand -20.7683 -17.9258
lfingers 7.12502
lthumb 5.59802 11.9802
rfemur -48.7173 -6.74006 22.9678
rtibia 24.3277
rfoot -11.6765 -2.12951
rtoes -5.10439
lfemur -7.68382 7.64109 -24.4229
ltibia 22.8895
lfoot -27.2471 -7.95588
ltoes -26.5894
346
root 0.559292 16.0916 29.3254 16.8067 5.45964 2.69574
lowerback -15.3926 -2.6651 -5.00132
upperback -4.70608 -2.75311 0.107198
thorax 3.85229 -1.36377 2.42735
lowerneck -2.66612 -0.82171 -1.6661
upperneck 8.6065 -1.24697 2.87268
head 3.26756 -0.566995 1.18224
rclavicle -1.20293e-014 4.82053e-015
rhumerus -108.837 -35.7304 24.6908
rradius 10.4465
rwrist 72.2354
rhand -18.0204 -35.2731
rfingers 7.12502
rthumb 8.25067 -425.092
lclavicle -1.20293e-014 4.82053e-015
lhumerus -12.7168 -7.88984 82.7618
lradius 34.7414
lwrist 4.6039
lhand -20.7283 -17.4347
lfingers 7.12502
lthumb 5.63671 12.4703
rfemur -49.1822 -7.33344 23.5987
rtibia 22.2794
rfoot -11.576 -0.307268
rtoes -2.11107
lfemur -6.35069 7.23619 -23.8387
ltibia 22.0448
lfoot -25.7729 -9.78898
ltoes -21.5978
347
root 0.568239 16.0694 29.5477 16.8877 6.01266 2.63312
lowerback -15.6206 -2.81757 -4.77066
upperback -4.71302 -2.97989 0.205989
thorax 3.98013 -1.47709 2.34932
lowerneck -2.43564 -0.848069 -1.47874
upperneck 8.42665 -1.27015 2.61615
head 3.15685 -0.584086 1.0628
rclavicle 3.1886e-014 1.08089e-014
rhumerus -108.988 -34.6293 25.6569
rradius 10.5221
rwrist 72.5354
rhand -17.0451 -35.3889
rfingers 7.12502
rthumb 9.19181 -425.169
lclavicle 3.1886e-014 1.08089e-014
lhumerus -11.9885 -8.15695 82.5614
lradius 35.7301
lwrist 5.03143
lhand -20.8058 -17.4464
lfingers 7.12502
lthumb 5.56187 12.4606
rfemur -48.7124 -9.19413 25.2802
rtibia 19.5807
rfoot -12.4248 1.74062
rtoes -12.4357
lfemur -5.40074 6.71362 -23.4721
ltibia 21.7681
lfoot -25.359 -10.0538
ltoes -21.3288
348
root 0.578083 16.0622 29.7652 17.1131 6.48351 2.84813
lowerback -15.6733 -2.97658 -4.75149
upperback -4.82403 -3.19171 0.223003
thorax 3.907 -1.57803 2.3156
lowerneck -2.61084 -0.85624 -1.36532
upperneck 8.55817 -1.27369 2.43619
head 3.23176 -0.587014 0.984501
rclavicle -1.86529e-014 -6.58474e-015
rhumerus -108.879 -33.6318 26.1476
rradius 10.582
rwrist 72.5932
rhand -17.2183 -36.469
rfingers 7.12502
rthumb 9.02472 -426.256
lclavicle -1.86529e-014 -6.58474e-015
lhumerus -11.4085 -8.17456 82.4115
lradius 36.7733
lwrist 5.28385
lhand -20.9294 -17.488
lfingers 7.12502
lthumb 5.44256 12.4221
rfemur -49.0007 -10.9013 26.5452
rtibia 17.9441
rfoot -14.1268 4.12976
rtoes -18.3845
lfemur -4.4575 6.13882 -23.4297
ltibia 21.0851
lfoot -24.8993 -10.1996
ltoes -21.9583
349
root 0.584441 15.9661 29.9931 17.3878 6.82285 3.09504
lowerback -15.7571 -3.0723 -4.76825
upperback -4.94571 -3.31203 0.220794
thorax 3.83265 -1.63364 2.29879
lowerneck -2.86348 -0.874751 -1.40834
upperneck 8.6958 -1.29123 2.37532
head 3.32755 -0.597233 0.972117
rclavicle 4.49367e-015 6.68413e-015
rhumerus -109.963 -32.2395 28.7718
rradius 10.6418
rwrist 74.3918
rhand -17.508 -36.8856
rfingers 7.12502
rthumb 8.74514 -426.684
lclavicle 4.49367e-015 6.68413e-015
lhumerus -10.8623 -8.23965 82.2448
lradius 37.9086
lwrist 5.33142
lhand -21.0898 -17.0109
lfingers 7.12502
lthumb 5.28766 12.9031
rfemur -51.1289 -11.4977 26.865
rtibia 17.2624
rfoot -15.4771 5.26382
rtoes -22.3519
lfemur -3.44298 5.54873 -23.4423
ltibia 20.3457
lfoot -24.3515 -10.4352
ltoes -21.9604
